<svg width="219" height="45" viewBox="0 0 219 45" fill="none" xmlns="http://www.w3.org/2000/svg">
<path d="M45.244 34V17.85H48.304V34H45.244ZM48.304 24.786L47.148 24.276C47.148 22.2133 47.624 20.57 48.576 19.346C49.528 18.122 50.8993 17.51 52.69 17.51C53.506 17.51 54.2427 17.6573 54.9 17.952C55.5573 18.224 56.1693 18.6887 56.736 19.346L54.73 21.42C54.39 21.0573 54.016 20.7967 53.608 20.638C53.2 20.4793 52.724 20.4 52.18 20.4C51.0467 20.4 50.1173 20.7627 49.392 21.488C48.6667 22.2133 48.304 23.3127 48.304 24.786ZM65.8392 34.34C64.2299 34.34 62.7792 33.9773 61.4872 33.252C60.1952 32.504 59.1752 31.4953 58.4272 30.226C57.6792 28.9567 57.3052 27.5173 57.3052 25.908C57.3052 24.3213 57.6679 22.8933 58.3932 21.624C59.1412 20.3547 60.1386 19.3573 61.3852 18.632C62.6546 17.884 64.0712 17.51 65.6352 17.51C67.1312 17.51 68.4459 17.85 69.5792 18.53C70.7352 19.21 71.6306 20.1507 72.2652 21.352C72.9226 22.5533 73.2512 23.9133 73.2512 25.432C73.2512 25.6587 73.2399 25.908 73.2172 26.18C73.1946 26.4293 73.1492 26.724 73.0812 27.064H59.4472V24.514H71.4492L70.3272 25.5C70.3272 24.412 70.1346 23.494 69.7492 22.746C69.3639 21.9753 68.8199 21.386 68.1172 20.978C67.4146 20.5473 66.5646 20.332 65.5672 20.332C64.5246 20.332 63.6066 20.5587 62.8132 21.012C62.0199 21.4653 61.4079 22.1 60.9772 22.916C60.5466 23.732 60.3312 24.6953 60.3312 25.806C60.3312 26.9393 60.5579 27.9367 61.0112 28.798C61.4646 29.6367 62.1106 30.294 62.9492 30.77C63.7879 31.2233 64.7512 31.45 65.8392 31.45C66.7459 31.45 67.5732 31.2913 68.3212 30.974C69.0919 30.6567 69.7492 30.1807 70.2932 29.546L72.2652 31.552C71.4946 32.4587 70.5426 33.15 69.4092 33.626C68.2986 34.102 67.1086 34.34 65.8392 34.34ZM76.5877 34V9.724H79.6478V34H76.5877ZM91.6049 34.34C89.9955 34.34 88.5449 33.9773 87.2529 33.252C85.9609 32.504 84.9409 31.4953 84.1929 30.226C83.4449 28.9567 83.0709 27.5173 83.0709 25.908C83.0709 24.3213 83.4335 22.8933 84.1589 21.624C84.9069 20.3547 85.9042 19.3573 87.1509 18.632C88.4202 17.884 89.8369 17.51 91.4009 17.51C92.8969 17.51 94.2115 17.85 95.3449 18.53C96.5009 19.21 97.3962 20.1507 98.0309 21.352C98.6882 22.5533 99.0169 23.9133 99.0169 25.432C99.0169 25.6587 99.0055 25.908 98.9829 26.18C98.9602 26.4293 98.9149 26.724 98.8469 27.064H85.2129V24.514H97.2149L96.0929 25.5C96.0929 24.412 95.9002 23.494 95.5149 22.746C95.1295 21.9753 94.5855 21.386 93.8829 20.978C93.1802 20.5473 92.3302 20.332 91.3329 20.332C90.2902 20.332 89.3722 20.5587 88.5789 21.012C87.7855 21.4653 87.1735 22.1 86.7429 22.916C86.3122 23.732 86.0969 24.6953 86.0969 25.806C86.0969 26.9393 86.3235 27.9367 86.7769 28.798C87.2302 29.6367 87.8762 30.294 88.7149 30.77C89.5535 31.2233 90.5169 31.45 91.6049 31.45C92.5115 31.45 93.3389 31.2913 94.0869 30.974C94.8575 30.6567 95.5149 30.1807 96.0589 29.546L98.0309 31.552C97.2602 32.4587 96.3082 33.15 95.1749 33.626C94.0642 34.102 92.8742 34.34 91.6049 34.34ZM102.353 34V17.85H105.413V34H102.353ZM113.267 34V24.242C113.267 23.0407 112.893 22.1 112.145 21.42C111.42 20.7173 110.502 20.366 109.391 20.366C108.643 20.366 107.975 20.5247 107.385 20.842C106.796 21.1593 106.32 21.6013 105.957 22.168C105.595 22.7347 105.413 23.4147 105.413 24.208L104.155 23.596C104.155 22.372 104.416 21.3067 104.937 20.4C105.481 19.4933 106.218 18.7907 107.147 18.292C108.077 17.7707 109.119 17.51 110.275 17.51C111.409 17.51 112.429 17.7593 113.335 18.258C114.265 18.7567 114.99 19.4593 115.511 20.366C116.055 21.2727 116.327 22.3493 116.327 23.596V34H113.267ZM124.181 34V24.242C124.181 23.0407 123.807 22.1 123.059 21.42C122.334 20.7173 121.427 20.366 120.339 20.366C119.591 20.366 118.911 20.5247 118.299 20.842C117.71 21.1593 117.234 21.6013 116.871 22.168C116.509 22.7347 116.327 23.4147 116.327 24.208L114.593 23.596C114.661 22.3493 114.99 21.284 115.579 20.4C116.191 19.4933 116.973 18.7907 117.925 18.292C118.877 17.7707 119.92 17.51 121.053 17.51C122.232 17.51 123.286 17.7593 124.215 18.258C125.145 18.7567 125.881 19.4593 126.425 20.366C126.992 21.2727 127.275 22.3607 127.275 23.63V34H124.181ZM139.939 34.34C138.715 34.34 137.605 34.0907 136.607 33.592C135.633 33.0707 134.851 32.3567 134.261 31.45C133.672 30.5433 133.343 29.512 133.275 28.356V23.494C133.343 22.3153 133.672 21.284 134.261 20.4C134.873 19.4933 135.667 18.7907 136.641 18.292C137.639 17.7707 138.738 17.51 139.939 17.51C141.413 17.51 142.739 17.884 143.917 18.632C145.119 19.38 146.059 20.3887 146.739 21.658C147.419 22.9273 147.759 24.3553 147.759 25.942C147.759 27.5287 147.419 28.9567 146.739 30.226C146.059 31.4953 145.119 32.504 143.917 33.252C142.739 33.9773 141.413 34.34 139.939 34.34ZM139.429 31.45C140.449 31.45 141.345 31.212 142.115 30.736C142.886 30.26 143.498 29.614 143.951 28.798C144.405 27.9593 144.631 26.996 144.631 25.908C144.631 24.8427 144.405 23.8907 143.951 23.052C143.498 22.2133 142.886 21.5673 142.115 21.114C141.345 20.638 140.461 20.4 139.463 20.4C138.443 20.4 137.548 20.638 136.777 21.114C136.007 21.5673 135.406 22.2133 134.975 23.052C134.545 23.8907 134.329 24.854 134.329 25.942C134.329 27.0073 134.533 27.9593 134.941 28.798C135.372 29.614 135.973 30.26 136.743 30.736C137.537 31.212 138.432 31.45 139.429 31.45ZM131.439 34V9.724H134.499V21.794L133.921 25.704L134.499 29.648V34H131.439ZM151.228 34V17.85H154.288V34H151.228ZM154.288 24.786L153.132 24.276C153.132 22.2133 153.608 20.57 154.56 19.346C155.512 18.122 156.884 17.51 158.674 17.51C159.49 17.51 160.227 17.6573 160.884 17.952C161.542 18.224 162.154 18.6887 162.72 19.346L160.714 21.42C160.374 21.0573 160 20.7967 159.592 20.638C159.184 20.4793 158.708 20.4 158.164 20.4C157.031 20.4 156.102 20.7627 155.376 21.488C154.651 22.2133 154.288 23.3127 154.288 24.786ZM171.212 34.34C169.738 34.34 168.401 33.9773 167.2 33.252C165.998 32.504 165.046 31.4953 164.344 30.226C163.664 28.9567 163.324 27.5287 163.324 25.942C163.324 24.3553 163.664 22.9273 164.344 21.658C165.046 20.3887 165.987 19.38 167.166 18.632C168.367 17.884 169.716 17.51 171.212 17.51C172.436 17.51 173.524 17.7707 174.476 18.292C175.45 18.7907 176.232 19.4933 176.822 20.4C177.411 21.284 177.74 22.3153 177.808 23.494V28.356C177.74 29.512 177.411 30.5433 176.822 31.45C176.255 32.3567 175.484 33.0707 174.51 33.592C173.558 34.0907 172.458 34.34 171.212 34.34ZM171.722 31.45C173.24 31.45 174.464 30.94 175.394 29.92C176.323 28.8773 176.788 27.5513 176.788 25.942C176.788 24.8313 176.572 23.868 176.142 23.052C175.734 22.2133 175.144 21.5673 174.374 21.114C173.603 20.638 172.708 20.4 171.688 20.4C170.668 20.4 169.761 20.638 168.968 21.114C168.197 21.59 167.585 22.2473 167.132 23.086C166.701 23.902 166.486 24.8427 166.486 25.908C166.486 26.996 166.701 27.9593 167.132 28.798C167.585 29.614 168.208 30.26 169.002 30.736C169.795 31.212 170.702 31.45 171.722 31.45ZM176.584 34V29.648L177.162 25.704L176.584 21.794V17.85H179.678V34H176.584ZM186.819 34.34C186.184 34.34 185.651 34.1247 185.221 33.694C184.813 33.2407 184.609 32.708 184.609 32.096C184.609 31.4613 184.813 30.94 185.221 30.532C185.651 30.1013 186.184 29.886 186.819 29.886C187.453 29.886 187.975 30.1013 188.383 30.532C188.813 30.94 189.029 31.4613 189.029 32.096C189.029 32.708 188.813 33.2407 188.383 33.694C187.975 34.1247 187.453 34.34 186.819 34.34ZM200.198 34.34C198.725 34.34 197.387 33.9773 196.186 33.252C194.985 32.504 194.033 31.4953 193.33 30.226C192.65 28.9567 192.31 27.5287 192.31 25.942C192.31 24.3553 192.65 22.9273 193.33 21.658C194.033 20.3887 194.973 19.38 196.152 18.632C197.353 17.884 198.702 17.51 200.198 17.51C201.422 17.51 202.51 17.7707 203.462 18.292C204.437 18.7907 205.219 19.4933 205.808 20.4C206.397 21.284 206.726 22.3153 206.794 23.494V28.356C206.726 29.512 206.397 30.5433 205.808 31.45C205.241 32.3567 204.471 33.0707 203.496 33.592C202.544 34.0907 201.445 34.34 200.198 34.34ZM200.708 31.45C202.227 31.45 203.451 30.94 204.38 29.92C205.309 28.8773 205.774 27.5513 205.774 25.942C205.774 24.8313 205.559 23.868 205.128 23.052C204.72 22.2133 204.131 21.5673 203.36 21.114C202.589 20.638 201.694 20.4 200.674 20.4C199.654 20.4 198.747 20.638 197.954 21.114C197.183 21.59 196.571 22.2473 196.118 23.086C195.687 23.902 195.472 24.8427 195.472 25.908C195.472 26.996 195.687 27.9593 196.118 28.798C196.571 29.614 197.195 30.26 197.988 30.736C198.781 31.212 199.688 31.45 200.708 31.45ZM205.57 34V29.648L206.148 25.704L205.57 21.794V17.85H208.664V34H205.57ZM213.153 34V17.85H216.213V34H213.153ZM214.683 14.62C214.116 14.62 213.652 14.4387 213.289 14.076C212.926 13.6907 212.745 13.2147 212.745 12.648C212.745 12.104 212.926 11.6507 213.289 11.288C213.652 10.9027 214.116 10.71 214.683 10.71C215.25 10.71 215.714 10.9027 216.077 11.288C216.44 11.6507 216.621 12.104 216.621 12.648C216.621 13.2147 216.44 13.6907 216.077 14.076C215.714 14.4387 215.25 14.62 214.683 14.62Z" fill="black"/>
<path d="M35.6911 16.2981C34.4395 18.1068 35.6157 19.6849 36.7945 21.4844C38.018 23.3523 37.3582 25.788 35.5327 27.4011C35.3753 27.5004 35.24 27.631 35.1354 27.785C35.0308 27.9389 34.959 28.1127 34.9246 28.2956C34.8901 28.4785 34.8938 28.6665 34.9353 28.848C34.9769 29.0294 35.0554 29.2003 35.1659 29.35C36.4078 31.975 35.5231 34.5135 33.0467 36.0882C32.5427 36.4228 32.1527 36.9032 31.9287 37.4652C31.5925 38.5663 30.8805 39.5145 29.9169 40.1445C28.9533 40.7745 27.7991 41.0464 26.6556 40.9127C26.3872 40.9248 26.1244 40.9936 25.8845 41.1147C25.6446 41.2357 25.4331 41.4063 25.2639 41.615C23.8424 43.5814 21.9861 43.9698 19.9547 42.5325C19.7456 42.3315 19.4664 42.2199 19.1763 42.2215C18.8862 42.223 18.6082 42.3376 18.4012 42.5408C16.4406 43.9575 14.5112 43.5473 13.0776 41.5991C12.9049 41.3909 12.6903 41.2215 12.4477 41.1018C12.2051 40.9822 11.94 40.915 11.6697 40.9046C10.5501 41.0516 9.41494 40.7924 8.4702 40.1738C7.52547 39.5553 6.83382 38.6186 6.52083 37.5336C6.30112 36.9614 5.90994 36.4711 5.40083 36.1299C2.74903 34.4775 1.89083 31.8612 3.31843 29.0672C3.72203 28.2772 3.49173 27.9679 2.94683 27.4907C2.35517 27.0363 1.87314 26.4548 1.53637 25.7892C1.19959 25.1236 1.01666 24.3908 1.00109 23.6449C0.985514 22.8991 1.1377 22.1593 1.44641 21.4802C1.75511 20.801 2.21245 20.2 2.78463 19.7213C3.05628 19.5299 3.24568 19.2429 3.31494 18.9179C3.38421 18.5929 3.32824 18.2537 3.15823 17.9681C2.02403 15.1713 2.85313 12.9166 5.40003 11.2772C5.93136 10.8974 6.33205 10.3624 6.54703 9.74569C6.86601 8.71032 7.54084 7.82109 8.45218 7.23525C9.36352 6.64941 10.4527 6.4047 11.527 6.54439C11.8529 6.62659 12.1973 6.59269 12.5009 6.44851C12.8045 6.30434 13.0484 6.0589 13.1906 5.7544C13.4294 5.32135 13.7604 4.94601 14.1601 4.65485C14.5599 4.36369 15.0186 4.16381 15.5041 4.06933C15.9895 3.97485 16.4897 3.98807 16.9695 4.10804C17.4492 4.22802 17.8968 4.45184 18.2806 4.76369C18.3942 4.88296 18.5307 4.97813 18.6819 5.04354C18.8331 5.10894 18.9959 5.14324 19.1606 5.14438C19.3253 5.14553 19.4885 5.11351 19.6406 5.05022C19.7927 4.98692 19.9305 4.89366 20.0457 4.77599C21.9226 3.42769 23.87 3.88599 25.2581 5.76599C25.4435 5.98675 25.6734 6.16589 25.9327 6.29169C26.1921 6.41748 26.4751 6.4871 26.7632 6.496C27.9084 6.37988 29.0576 6.67362 30.0067 7.32499C30.9557 7.97636 31.643 8.94315 31.9463 10.0535C32.2219 10.6436 32.6689 11.137 33.229 11.4693C34.041 11.9728 34.6997 12.689 35.1338 13.5402C35.5678 14.3914 35.7605 15.3452 35.6911 16.2981Z" fill="#FF7AA0"/>
<path d="M35.6911 16.2981C34.4395 18.1068 35.6157 19.6849 36.7945 21.4844C38.018 23.3523 37.3582 25.788 35.5327 27.4011C35.3753 27.5004 35.24 27.631 35.1354 27.785C35.0308 27.9389 34.959 28.1127 34.9246 28.2956C34.8901 28.4785 34.8938 28.6665 34.9353 28.848C34.9769 29.0294 35.0554 29.2003 35.1659 29.35C36.4078 31.975 35.5231 34.5135 33.0467 36.0882C32.5427 36.4228 32.1527 36.9032 31.9287 37.4652C31.5925 38.5663 30.8805 39.5145 29.9169 40.1445C28.9533 40.7745 27.7991 41.0464 26.6556 40.9127C26.3872 40.9248 26.1244 40.9936 25.8845 41.1147C25.6446 41.2357 25.4331 41.4063 25.2639 41.615C23.8424 43.5814 21.9861 43.9698 19.9547 42.5325C19.7456 42.3315 19.4664 42.2199 19.1763 42.2215C18.8862 42.223 18.6082 42.3376 18.4012 42.5408C16.4406 43.9575 14.5112 43.5473 13.0776 41.5991C12.9049 41.3909 12.6903 41.2215 12.4477 41.1018C12.2051 40.9822 11.94 40.915 11.6697 40.9046C10.5501 41.0516 9.41494 40.7924 8.4702 40.1738C7.52547 39.5553 6.83382 38.6186 6.52083 37.5336C6.30112 36.9614 5.90994 36.4711 5.40083 36.1299C2.74903 34.4775 1.89083 31.8612 3.31843 29.0672C3.72203 28.2772 3.49173 27.9679 2.94683 27.4907C2.35517 27.0363 1.87314 26.4548 1.53637 25.7892C1.19959 25.1236 1.01666 24.3908 1.00109 23.6449C0.985514 22.8991 1.1377 22.1593 1.44641 21.4802C1.75511 20.801 2.21245 20.2 2.78463 19.7213C3.05628 19.5299 3.24568 19.2429 3.31494 18.9179C3.38421 18.5929 3.32824 18.2537 3.15823 17.9681C2.02403 15.1713 2.85313 12.9166 5.40003 11.2772C5.93136 10.8974 6.33205 10.3624 6.54703 9.74569C6.86601 8.71032 7.54084 7.82109 8.45218 7.23525C9.36352 6.64941 10.4527 6.4047 11.527 6.54439C11.8529 6.62659 12.1973 6.59269 12.5009 6.44851C12.8045 6.30434 13.0484 6.0589 13.1906 5.7544C13.4294 5.32135 13.7604 4.94601 14.1601 4.65485C14.5599 4.36369 15.0186 4.16381 15.5041 4.06933C15.9895 3.97485 16.4897 3.98807 16.9695 4.10804C17.4492 4.22802 17.8968 4.45184 18.2806 4.76369C18.3942 4.88296 18.5307 4.97813 18.6819 5.04354C18.8331 5.10894 18.9959 5.14324 19.1606 5.14438C19.3253 5.14553 19.4885 5.11351 19.6406 5.05022C19.7927 4.98692 19.9305 4.89366 20.0457 4.77599C21.9226 3.42769 23.87 3.88599 25.2581 5.76599C25.4435 5.98675 25.6734 6.16589 25.9327 6.29169C26.1921 6.41748 26.4751 6.4871 26.7632 6.496C27.9084 6.37988 29.0576 6.67362 30.0067 7.32499C30.9557 7.97636 31.643 8.94315 31.9463 10.0535C32.2219 10.6436 32.6689 11.137 33.229 11.4693C34.041 11.9728 34.6997 12.689 35.1338 13.5402C35.5678 14.3914 35.7605 15.3452 35.6911 16.2981Z" stroke="black" stroke-width="2" stroke-miterlimit="10"/>
<path d="M19.209 5.14001V42.2234" stroke="black" stroke-width="2" stroke-miterlimit="10"/>
<path d="M13.8839 16.7399C13.8839 16.7399 17.8073 12.7953 19.209 18.0913" stroke="black" stroke-width="2" stroke-linecap="round" stroke-linejoin="round"/>
<path d="M24.5342 16.7399C24.5342 16.7399 20.6107 12.7953 19.209 18.0913" stroke="black" stroke-width="2" stroke-linecap="round" stroke-linejoin="round"/>
<path d="M27.3306 13.7557C27.3306 13.7557 29.9897 8.8687 24.514 9.0387" stroke="black" stroke-width="2" stroke-linecap="round" stroke-linejoin="round"/>
<path d="M24.5342 29.5794C24.5342 29.5794 20.6107 33.524 19.209 28.228" stroke="black" stroke-width="2" stroke-linecap="round" stroke-linejoin="round"/>
<path d="M25.5214 23.1799C25.5214 23.1799 29.4814 19.2719 30.8339 24.5806" stroke="black" stroke-width="2" stroke-linecap="round" stroke-linejoin="round"/>
<path d="M13.8839 29.5794C13.8839 29.5794 17.8073 33.524 19.209 28.228" stroke="black" stroke-width="2" stroke-linecap="round" stroke-linejoin="round"/>
<path d="M33.229 11.4693C33.229 11.4693 31.9708 10.1343 27.9305 10.4601" stroke="black" stroke-width="2" stroke-linecap="round" stroke-linejoin="round"/>
<path d="M27.2718 33.2676C27.2718 33.2676 29.4857 38.3717 24.0468 37.7155" stroke="black" stroke-width="2" stroke-linecap="round" stroke-linejoin="round"/>
<path d="M33.189 35.9957C33.189 35.9957 31.5723 37.2874 27.577 36.6036" stroke="black" stroke-width="2" stroke-linecap="round" stroke-linejoin="round"/>
<path d="M11.294 13.7557C11.294 13.7557 8.63492 8.8687 14.1106 9.0387" stroke="black" stroke-width="2" stroke-linecap="round" stroke-linejoin="round"/>
<path d="M12.409 23.1799C12.409 23.1799 8.44902 19.2719 7.09662 24.5806" stroke="black" stroke-width="2" stroke-linecap="round" stroke-linejoin="round"/>
<path d="M5.34601 11.3126C5.34601 11.3126 6.65361 10.1343 10.6938 10.4601" stroke="black" stroke-width="2" stroke-linecap="round" stroke-linejoin="round"/>
<path d="M11.099 33.2676C11.099 33.2676 8.88515 38.3717 14.324 37.7155" stroke="black" stroke-width="2" stroke-linecap="round" stroke-linejoin="round"/>
<path d="M5.18225 35.9957C5.18225 35.9957 6.79895 37.2874 10.7943 36.6036" stroke="black" stroke-width="2" stroke-linecap="round" stroke-linejoin="round"/>
</svg>
