<svg width="172" height="26" viewBox="0 0 172 26" fill="none" xmlns="http://www.w3.org/2000/svg">
<path d="M0.244 25V8.85H3.304V25H0.244ZM3.304 15.786L2.148 15.276C2.148 13.2133 2.624 11.57 3.576 10.346C4.528 9.122 5.89933 8.51 7.69 8.51C8.506 8.51 9.24267 8.65733 9.9 8.952C10.5573 9.224 11.1693 9.68867 11.736 10.346L9.73 12.42C9.39 12.0573 9.016 11.7967 8.608 11.638C8.2 11.4793 7.724 11.4 7.18 11.4C6.04667 11.4 5.11733 11.7627 4.392 12.488C3.66667 13.2133 3.304 14.3127 3.304 15.786ZM20.8392 25.34C19.2299 25.34 17.7792 24.9773 16.4872 24.252C15.1952 23.504 14.1752 22.4953 13.4272 21.226C12.6792 19.9567 12.3052 18.5173 12.3052 16.908C12.3052 15.3213 12.6679 13.8933 13.3932 12.624C14.1412 11.3547 15.1386 10.3573 16.3852 9.632C17.6546 8.884 19.0712 8.51 20.6352 8.51C22.1312 8.51 23.4459 8.85 24.5792 9.53C25.7352 10.21 26.6306 11.1507 27.2652 12.352C27.9226 13.5533 28.2512 14.9133 28.2512 16.432C28.2512 16.6587 28.2399 16.908 28.2172 17.18C28.1946 17.4293 28.1492 17.724 28.0812 18.064H14.4472V15.514H26.4492L25.3272 16.5C25.3272 15.412 25.1346 14.494 24.7492 13.746C24.3639 12.9753 23.8199 12.386 23.1172 11.978C22.4146 11.5473 21.5646 11.332 20.5672 11.332C19.5246 11.332 18.6066 11.5587 17.8132 12.012C17.0199 12.4653 16.4079 13.1 15.9772 13.916C15.5466 14.732 15.3312 15.6953 15.3312 16.806C15.3312 17.9393 15.5579 18.9367 16.0112 19.798C16.4646 20.6367 17.1106 21.294 17.9492 21.77C18.7879 22.2233 19.7512 22.45 20.8392 22.45C21.7459 22.45 22.5732 22.2913 23.3212 21.974C24.0919 21.6567 24.7492 21.1807 25.2932 20.546L27.2652 22.552C26.4946 23.4587 25.5426 24.15 24.4092 24.626C23.2986 25.102 22.1086 25.34 20.8392 25.34ZM31.5877 25V0.723998H34.6478V25H31.5877ZM46.6049 25.34C44.9955 25.34 43.5449 24.9773 42.2529 24.252C40.9609 23.504 39.9409 22.4953 39.1929 21.226C38.4449 19.9567 38.0709 18.5173 38.0709 16.908C38.0709 15.3213 38.4335 13.8933 39.1589 12.624C39.9069 11.3547 40.9042 10.3573 42.1509 9.632C43.4202 8.884 44.8369 8.51 46.4009 8.51C47.8969 8.51 49.2115 8.85 50.3449 9.53C51.5009 10.21 52.3962 11.1507 53.0309 12.352C53.6882 13.5533 54.0169 14.9133 54.0169 16.432C54.0169 16.6587 54.0055 16.908 53.9829 17.18C53.9602 17.4293 53.9149 17.724 53.8469 18.064H40.2129V15.514H52.2149L51.0929 16.5C51.0929 15.412 50.9002 14.494 50.5149 13.746C50.1295 12.9753 49.5855 12.386 48.8829 11.978C48.1802 11.5473 47.3302 11.332 46.3329 11.332C45.2902 11.332 44.3722 11.5587 43.5789 12.012C42.7855 12.4653 42.1735 13.1 41.7429 13.916C41.3122 14.732 41.0969 15.6953 41.0969 16.806C41.0969 17.9393 41.3235 18.9367 41.7769 19.798C42.2302 20.6367 42.8762 21.294 43.7149 21.77C44.5535 22.2233 45.5169 22.45 46.6049 22.45C47.5115 22.45 48.3389 22.2913 49.0869 21.974C49.8575 21.6567 50.5149 21.1807 51.0589 20.546L53.0309 22.552C52.2602 23.4587 51.3082 24.15 50.1749 24.626C49.0642 25.102 47.8742 25.34 46.6049 25.34ZM57.3534 25V8.85H60.4134V25H57.3534ZM68.2674 25V15.242C68.2674 14.0407 67.8934 13.1 67.1454 12.42C66.42 11.7173 65.502 11.366 64.3914 11.366C63.6434 11.366 62.9747 11.5247 62.3854 11.842C61.796 12.1593 61.32 12.6013 60.9574 13.168C60.5947 13.7347 60.4134 14.4147 60.4134 15.208L59.1554 14.596C59.1554 13.372 59.416 12.3067 59.9374 11.4C60.4814 10.4933 61.218 9.79067 62.1474 9.292C63.0767 8.77067 64.1194 8.51 65.2754 8.51C66.4087 8.51 67.4287 8.75933 68.3354 9.258C69.2647 9.75667 69.99 10.4593 70.5114 11.366C71.0554 12.2727 71.3274 13.3493 71.3274 14.596V25H68.2674ZM79.1814 25V15.242C79.1814 14.0407 78.8074 13.1 78.0594 12.42C77.334 11.7173 76.4274 11.366 75.3394 11.366C74.5914 11.366 73.9114 11.5247 73.2994 11.842C72.71 12.1593 72.234 12.6013 71.8714 13.168C71.5087 13.7347 71.3274 14.4147 71.3274 15.208L69.5934 14.596C69.6614 13.3493 69.99 12.284 70.5794 11.4C71.1914 10.4933 71.9734 9.79067 72.9254 9.292C73.8774 8.77067 74.92 8.51 76.0534 8.51C77.232 8.51 78.286 8.75933 79.2154 9.258C80.1447 9.75667 80.8814 10.4593 81.4254 11.366C81.992 12.2727 82.2754 13.3607 82.2754 14.63V25H79.1814ZM94.9393 25.34C93.7153 25.34 92.6046 25.0907 91.6073 24.592C90.6326 24.0707 89.8506 23.3567 89.2613 22.45C88.672 21.5433 88.3433 20.512 88.2753 19.356V14.494C88.3433 13.3153 88.672 12.284 89.2613 11.4C89.8733 10.4933 90.6666 9.79067 91.6413 9.292C92.6386 8.77067 93.738 8.51 94.9393 8.51C96.4126 8.51 97.7386 8.884 98.9173 9.632C100.119 10.38 101.059 11.3887 101.739 12.658C102.419 13.9273 102.759 15.3553 102.759 16.942C102.759 18.5287 102.419 19.9567 101.739 21.226C101.059 22.4953 100.119 23.504 98.9173 24.252C97.7386 24.9773 96.4126 25.34 94.9393 25.34ZM94.4293 22.45C95.4493 22.45 96.3446 22.212 97.1153 21.736C97.886 21.26 98.498 20.614 98.9513 19.798C99.4046 18.9593 99.6313 17.996 99.6313 16.908C99.6313 15.8427 99.4046 14.8907 98.9513 14.052C98.498 13.2133 97.886 12.5673 97.1153 12.114C96.3446 11.638 95.4606 11.4 94.4633 11.4C93.4433 11.4 92.548 11.638 91.7773 12.114C91.0066 12.5673 90.406 13.2133 89.9753 14.052C89.5446 14.8907 89.3293 15.854 89.3293 16.942C89.3293 18.0073 89.5333 18.9593 89.9413 19.798C90.372 20.614 90.9726 21.26 91.7433 21.736C92.5366 22.212 93.432 22.45 94.4293 22.45ZM86.4393 25V0.723998H89.4993V12.794L88.9213 16.704L89.4993 20.648V25H86.4393ZM106.228 25V8.85H109.288V25H106.228ZM109.288 15.786L108.132 15.276C108.132 13.2133 108.608 11.57 109.56 10.346C110.512 9.122 111.884 8.51 113.674 8.51C114.49 8.51 115.227 8.65733 115.884 8.952C116.542 9.224 117.154 9.68867 117.72 10.346L115.714 12.42C115.374 12.0573 115 11.7967 114.592 11.638C114.184 11.4793 113.708 11.4 113.164 11.4C112.031 11.4 111.102 11.7627 110.376 12.488C109.651 13.2133 109.288 14.3127 109.288 15.786ZM126.212 25.34C124.738 25.34 123.401 24.9773 122.2 24.252C120.998 23.504 120.046 22.4953 119.344 21.226C118.664 19.9567 118.324 18.5287 118.324 16.942C118.324 15.3553 118.664 13.9273 119.344 12.658C120.046 11.3887 120.987 10.38 122.166 9.632C123.367 8.884 124.716 8.51 126.212 8.51C127.436 8.51 128.524 8.77067 129.476 9.292C130.45 9.79067 131.232 10.4933 131.822 11.4C132.411 12.284 132.74 13.3153 132.808 14.494V19.356C132.74 20.512 132.411 21.5433 131.822 22.45C131.255 23.3567 130.484 24.0707 129.51 24.592C128.558 25.0907 127.458 25.34 126.212 25.34ZM126.722 22.45C128.24 22.45 129.464 21.94 130.394 20.92C131.323 19.8773 131.788 18.5513 131.788 16.942C131.788 15.8313 131.572 14.868 131.142 14.052C130.734 13.2133 130.144 12.5673 129.374 12.114C128.603 11.638 127.708 11.4 126.688 11.4C125.668 11.4 124.761 11.638 123.968 12.114C123.197 12.59 122.585 13.2473 122.132 14.086C121.701 14.902 121.486 15.8427 121.486 16.908C121.486 17.996 121.701 18.9593 122.132 19.798C122.585 20.614 123.208 21.26 124.002 21.736C124.795 22.212 125.702 22.45 126.722 22.45ZM131.584 25V20.648L132.162 16.704L131.584 12.794V8.85H134.678V25H131.584ZM141.819 25.34C141.184 25.34 140.651 25.1247 140.221 24.694C139.813 24.2407 139.609 23.708 139.609 23.096C139.609 22.4613 139.813 21.94 140.221 21.532C140.651 21.1013 141.184 20.886 141.819 20.886C142.453 20.886 142.975 21.1013 143.383 21.532C143.813 21.94 144.029 22.4613 144.029 23.096C144.029 23.708 143.813 24.2407 143.383 24.694C142.975 25.1247 142.453 25.34 141.819 25.34ZM155.198 25.34C153.725 25.34 152.387 24.9773 151.186 24.252C149.985 23.504 149.033 22.4953 148.33 21.226C147.65 19.9567 147.31 18.5287 147.31 16.942C147.31 15.3553 147.65 13.9273 148.33 12.658C149.033 11.3887 149.973 10.38 151.152 9.632C152.353 8.884 153.702 8.51 155.198 8.51C156.422 8.51 157.51 8.77067 158.462 9.292C159.437 9.79067 160.219 10.4933 160.808 11.4C161.397 12.284 161.726 13.3153 161.794 14.494V19.356C161.726 20.512 161.397 21.5433 160.808 22.45C160.241 23.3567 159.471 24.0707 158.496 24.592C157.544 25.0907 156.445 25.34 155.198 25.34ZM155.708 22.45C157.227 22.45 158.451 21.94 159.38 20.92C160.309 19.8773 160.774 18.5513 160.774 16.942C160.774 15.8313 160.559 14.868 160.128 14.052C159.72 13.2133 159.131 12.5673 158.36 12.114C157.589 11.638 156.694 11.4 155.674 11.4C154.654 11.4 153.747 11.638 152.954 12.114C152.183 12.59 151.571 13.2473 151.118 14.086C150.687 14.902 150.472 15.8427 150.472 16.908C150.472 17.996 150.687 18.9593 151.118 19.798C151.571 20.614 152.195 21.26 152.988 21.736C153.781 22.212 154.688 22.45 155.708 22.45ZM160.57 25V20.648L161.148 16.704L160.57 12.794V8.85H163.664V25H160.57ZM168.153 25V8.85H171.213V25H168.153ZM169.683 5.62C169.116 5.62 168.652 5.43867 168.289 5.076C167.926 4.69067 167.745 4.21467 167.745 3.648C167.745 3.104 167.926 2.65067 168.289 2.288C168.652 1.90266 169.116 1.71 169.683 1.71C170.25 1.71 170.714 1.90266 171.077 2.288C171.44 2.65067 171.621 3.104 171.621 3.648C171.621 4.21467 171.44 4.69067 171.077 5.076C170.714 5.43867 170.25 5.62 169.683 5.62Z" fill="black"/>
</svg>
